<?xml version="1.0" standalone="no"?>
<!DOCTYPE svg PUBLIC "-//W3C//DTD SVG 1.1//EN" "http://www.w3.org/Graphics/SVG/1.1/DTD/svg11.dtd" >
<svg xmlns="http://www.w3.org/2000/svg" xmlns:xlink="http://www.w3.org/1999/xlink" version="1.1">
<metadata>
Created by FontForge 20161003 at Sat Jan 13 19:16:24 2018
 By www-data
Copyright (c) ParaGraph Intl., 1990-1995. All Rights Reserved. ITC Bauhaus is a registered trade mark of International Typeface Corporation.
</metadata>
<defs>
<font id="BauhausCMedium" horiz-adv-x="554" >
  <font-face 
    font-family="BauhausCMedium"
    font-weight="500"
    font-stretch="normal"
    units-per-em="1000"
    panose-1="4 0 6 0 0 0 0 0 0 0"
    ascent="769"
    descent="-231"
    x-height="480"
    cap-height="700"
    bbox="-65 -231 1055 901"
    underline-thickness="50"
    underline-position="-150"
    unicode-range="U+0020-2122"
  />
<missing-glyph horiz-adv-x="233" 
 />
    <glyph glyph-name=".notdef" horiz-adv-x="233" 
 />
    <glyph glyph-name=".null" horiz-adv-x="0" 
 />
    <glyph glyph-name="nonmarkingreturn" horiz-adv-x="333" 
 />
    <glyph glyph-name="space" unicode=" " horiz-adv-x="233" 
 />
    <glyph glyph-name="space" unicode="&#xa0;" horiz-adv-x="233" 
 />
    <glyph glyph-name="exclam" unicode="!" horiz-adv-x="222" 
d="M152 160h-88v540h88v-540zM46 52q0 26 18 44t44 18t44 -18t18 -44t-18 -44t-44 -18t-44 18t-18 44z" />
    <glyph glyph-name="quotedbl" unicode="&#x22;" horiz-adv-x="333" 
d="M197 430v270h82v-270h-82zM55 430v270h82v-270h-82z" />
    <glyph glyph-name="numbersign" unicode="#" horiz-adv-x="556" 
d="M495 278l-3 -64h-97l-30 -214h-72l30 214h-119l-30 -214h-72l30 214h-100l3 64h106l20 144h-100l3 64h106l30 214h72l-30 -214h119l30 214h72l-30 -214h91l-3 -64h-97l-20 -144h91zM352 422h-119l-20 -144h119z" />
    <glyph glyph-name="dollar" unicode="$" horiz-adv-x="559" 
d="M318 782v-82h135v-84h-135v-177l43 -29q6 -4 24.5 -15t28.5 -18t25.5 -21.5t24.5 -29t15.5 -37t6.5 -49.5q0 -69 -41 -106.5t-113 -37.5h-14v-108h-76v108h-160v84h160v192l-36 22q-6 3 -27 15.5t-28 17t-23.5 16.5t-23 21.5t-16 24t-13 31.5t-3.5 37q0 60 40 101.5
t117 41.5h13v82h76zM242 470v146h-12q-29 0 -46.5 -16t-17.5 -40q0 -47 64 -83zM318 337v-157h9q28 0 46.5 18t18.5 46q0 19 -10 35.5t-20 25t-30 22.5z" />
    <glyph glyph-name="percent" unicode="%" horiz-adv-x="871" 
d="M49 548q0 69 48.5 116.5t115.5 47.5t115.5 -47.5t48.5 -116.5t-48.5 -116.5t-115.5 -47.5t-115.5 47.5t-48.5 116.5zM127 548q0 -37 25.5 -61.5t60.5 -24.5t60.5 24.5t25.5 61.5t-25.5 61.5t-61.5 24.5q-35 0 -60 -24.5t-25 -61.5zM698 712l-465 -724h-62l465 724h62z
M493 152q0 69 48.5 116.5t115.5 47.5t115.5 -47.5t48.5 -116.5t-48.5 -116.5t-115.5 -47.5t-115.5 47.5t-48.5 116.5zM571 152q0 -37 25.5 -61.5t60.5 -24.5t60.5 24.5t25.5 61.5t-25.5 61.5t-60.5 24.5t-60.5 -24.5t-25.5 -61.5z" />
    <glyph glyph-name="ampersand" unicode="&#x26;" horiz-adv-x="648" 
d="M494 700v-88h-265q-3 0 -9.5 0.5t-9.5 0t-7 -1.5t-5.5 -3.5t-1.5 -7.5q0 -14 22 -42l290 -375q23 35 23 83q0 82 -66 158l64 66q96 -90 96 -215q0 -97 -56 -170l82 -105h-110l-29 45q-77 -57 -186 -57q-125 0 -210 80t-85 205q0 154 120 233l-17 23q-32 43 -32 82
q0 37 27.5 63t93.5 26h271zM454 116l-247 319q-82 -60 -82 -161q0 -85 58 -141.5t147 -56.5q72 0 124 40z" />
    <glyph glyph-name="quotesingle" unicode="'" horiz-adv-x="222" 
d="M70 430v270h82v-270h-82z" />
    <glyph glyph-name="parenleft" unicode="(" horiz-adv-x="399" 
d="M338 -128l-46 -60q-116 87 -168 208t-52 245q0 77 18.5 152t69 156t128.5 139l50 -54q-178 -138 -178 -388q0 -256 178 -398z" />
    <glyph glyph-name="parenright" unicode=")" horiz-adv-x="399" 
d="M61 652l46 60q116 -87 168 -208t52 -245q0 -77 -18.5 -152t-69 -156t-128.5 -139l-50 54q178 140 178 388q0 259 -178 398z" />
    <glyph glyph-name="asterisk" unicode="*" horiz-adv-x="500" 
d="M100 374l-38 62l132 71l-132 69l38 62l124 -84l-12 146h76l-12 -146l124 84l38 -62l-132 -69l132 -71l-38 -62l-124 80l12 -140h-76l12 140z" />
    <glyph glyph-name="plus" unicode="+" horiz-adv-x="580" 
d="M251 279v201h78v-201h201v-78h-201v-201h-78v201h-201v78h201z" />
    <glyph glyph-name="comma" unicode="," horiz-adv-x="320" 
d="M62 -100l42 196h94l-58 -196h-78z" />
    <glyph glyph-name="hyphen" unicode="-" horiz-adv-x="278" 
d="M251 200h-224v80h224v-80z" />
    <glyph glyph-name="hyphen" unicode="&#xad;" horiz-adv-x="278" 
d="M251 200h-224v80h224v-80z" />
    <glyph glyph-name="period" unicode="." horiz-adv-x="278" 
d="M80 53q0 24 17.5 41.5t41.5 17.5t41.5 -17.5t17.5 -41.5t-17.5 -41.5t-41.5 -17.5t-41.5 17.5t-17.5 41.5z" />
    <glyph glyph-name="slash" unicode="/" horiz-adv-x="356" 
d="M340 712l-324 -724h-78l324 724h78z" />
    <glyph glyph-name="zero" unicode="0" horiz-adv-x="540" 
d="M33 263v188q0 51 13.5 94t36 70t41.5 43t39 27q49 25 107 25t107 -25q21 -11 40 -26.5t41 -43.5t35.5 -71.5t13.5 -96.5v-184q0 -181 -130 -248q-49 -25 -107 -25t-107 25q-130 67 -130 248zM127 441v-197q0 -79 37.5 -122.5t105.5 -43.5t105.5 43.5t37.5 122.5v203
q0 89 -38 132t-105 43q-143 0 -143 -181z" />
    <glyph glyph-name="one" unicode="1" 
d="M137 700h194v-700h-94v612h-126z" />
    <glyph glyph-name="two" unicode="2" 
d="M510 88v-88h-384q-49 0 -71.5 21.5t-22.5 52.5q0 11 2.5 20.5t5 15.5t10 13t11 10t13.5 10.5l14 10.5l234 183q29 23 46 39t33 47t16 65q0 55 -35.5 94.5t-102.5 39.5q-64 0 -103 -41t-39 -100q0 -62 41 -97.5t93 -41.5l-82 -65q-70 25 -108 79.5t-38 124.5
q0 104 72.5 166.5t170.5 62.5q96 0 160.5 -63.5t64.5 -157.5q0 -44 -11.5 -79.5t-40 -68t-46.5 -48.5t-62 -51l-195 -154h354z" />
    <glyph glyph-name="three" unicode="3" 
d="M45 0v88h215q101 0 138 62q17 27 17 70q0 29 -16 56q-14 23 -33.5 37t-44.5 19.5t-40 6.5t-39 1h-100v70l219 202h-300v88h286q18 0 29.5 -0.5t29.5 -4.5t28.5 -12t19 -23t8.5 -37q0 -10 -2 -19t-7 -17.5t-8.5 -14.5t-12 -14.5l-12 -12t-14 -12t-12.5 -10.5l-111 -95
q69 2 118 -25.5t75 -64.5q33 -47 33 -115q0 -70 -31 -122q-21 -35 -46.5 -57t-58 -30.5t-56 -11t-61.5 -2.5h-211z" />
    <glyph glyph-name="four" unicode="4" 
d="M266 700h103l-252 -450h210v302l87 148h7v-450h105v-88h-105v-162h-94v162h-243q-74 0 -74 55q0 24 29 75z" />
    <glyph glyph-name="five" unicode="5" 
d="M94 700h364v-88h-270v-182h67q162 0 226 -93q35 -51 35 -123q0 -53 -20 -96q-18 -39 -45 -64.5t-60.5 -36.5t-59 -14t-60.5 -3h-215v88h219q21 0 35.5 1.5t33.5 6.5t35 17.5t27 31.5q16 27 16 67q0 43 -16 71q-16 27 -43.5 41t-47 16t-52.5 2h-169v358z" />
    <glyph glyph-name="six" unicode="6" horiz-adv-x="552" 
d="M240 410l53 80q99 2 167 -67t68 -174q0 -108 -74 -183.5t-182 -75.5q-103 0 -175.5 72t-72.5 177q0 57 21.5 104.5t67.5 111.5l173 245h114l-218 -306q-20 -28 -31 -46t-22 -48t-11 -60q0 -72 46.5 -117t110.5 -45q66 0 112.5 47t46.5 117q0 60 -32 100t-74.5 55
t-87.5 13z" />
    <glyph glyph-name="seven" unicode="7" horiz-adv-x="555" 
d="M44 612v88h356q102 0 102 -71q0 -15 -4.5 -32.5t-9 -28t-16 -34t-14.5 -30.5l-224 -504h-108l274 612h-356z" />
    <glyph glyph-name="eight" unicode="8" horiz-adv-x="540" 
d="M399 396q112 -55 112 -184q0 -96 -65.5 -159t-175.5 -63q-108 0 -174.5 63.5t-66.5 158.5q0 57 30.5 105.5t81.5 78.5q-66 55 -66 140q0 73 54.5 123.5t139.5 50.5q92 0 142 -51.5t50 -122.5q0 -84 -62 -140zM270 348q-65 0 -106 -37.5t-41 -97.5t41 -97.5t106 -37.5
t106 37.5t41 97.5t-41 97.5t-106 37.5zM268 432q43 0 71 26.5t28 68.5t-28 68.5t-70 26.5q-43 0 -71.5 -26.5t-28.5 -68.5t27.5 -68.5t71.5 -26.5z" />
    <glyph glyph-name="nine" unicode="9" horiz-adv-x="553" 
d="M314 288l-55 -80q-98 -4 -166.5 67t-68.5 177q0 107 73.5 182.5t182.5 75.5q105 0 177 -73t72 -185q0 -16 -2 -31.5t-4 -27t-8.5 -26.5t-9.5 -22.5t-14 -24.5t-14.5 -22t-18.5 -26t-19 -27l-173 -245h-114l218 306q25 34 34.5 49t20 43t10.5 57q0 75 -46 121t-111 46
q-67 0 -113.5 -47t-46.5 -120q0 -76 43.5 -122t119.5 -46q22 0 33 1z" />
    <glyph glyph-name="colon" unicode=":" horiz-adv-x="278" 
d="M80 341q0 24 17.5 41.5t41.5 17.5t41.5 -17.5t17.5 -41.5t-17.5 -41.5t-41.5 -17.5t-41.5 17.5t-17.5 41.5zM80 53q0 24 17.5 41.5t41.5 17.5t41.5 -17.5t17.5 -41.5t-17.5 -41.5t-41.5 -17.5t-41.5 17.5t-17.5 41.5z" />
    <glyph glyph-name="semicolon" unicode=";" horiz-adv-x="296" 
d="M80 341q0 24 17.5 41.5t41.5 17.5t41.5 -17.5t17.5 -41.5t-17.5 -41.5t-41.5 -17.5t-41.5 17.5t-17.5 41.5zM62 -100l42 196h94l-58 -196h-78z" />
    <glyph glyph-name="less" unicode="&#x3c;" horiz-adv-x="580" 
d="M147 240l383 -170v-78l-480 214v68l480 214v-78z" />
    <glyph glyph-name="equal" unicode="=" horiz-adv-x="580" 
d="M530 378v-78h-480v78h480zM530 180v-78h-480v78h480z" />
    <glyph glyph-name="greater" unicode="&#x3e;" horiz-adv-x="580" 
d="M432 240l-382 170v78l480 -214v-68l-480 -214v78z" />
    <glyph glyph-name="question" unicode="?" horiz-adv-x="444" 
d="M120 490h-94q-1 95 58 158.5t148 63.5q87 0 146.5 -60.5t59.5 -148.5q0 -81 -49.5 -137t-126.5 -70v-136h-88v220h35q63 0 99 33.5t36 88.5q0 52 -30 87t-83 35q-32 0 -55.5 -13.5t-34.5 -35.5t-16 -43t-5 -42zM156 52q0 26 18 44t44 18t44 -18t18 -44t-18 -44t-44 -18
t-44 18t-18 44z" />
    <glyph glyph-name="at" unicode="@" horiz-adv-x="752" 
d="M463 282v-72q-32 -32 -85 -32q-71 0 -120 47.5t-49 125.5q0 109 95 158q38 19 84 19q84 0 132 -62q37 -49 37 -149v-37q0 -9 0.5 -12.5t2 -10t6 -9t12.5 -2.5q24 0 45 48.5t21 109.5q0 146 -117 212q-58 32 -139 32q-78 0 -143 -38t-105 -106.5t-40 -156.5
q0 -128 84.5 -211.5t212.5 -83.5q141 0 225 100l7 -77q-91 -87 -228 -87q-153 0 -261 105.5t-108 257.5q0 111 57 194.5t141 126.5q78 40 166 40q82 0 147 -31q72 -34 120.5 -101.5t48.5 -166.5q0 -97 -46 -166t-106 -69q-71 0 -71 93v49q0 144 -107 144q-48 0 -76.5 -33.5
t-28.5 -81.5q0 -47 31.5 -77t78.5 -30q39 0 76 40z" />
    <glyph glyph-name="A" unicode="A" horiz-adv-x="594" 
d="M152 0h-94v450q0 109 66.5 184.5t172.5 75.5t172.5 -75.5t66.5 -184.5v-450h-94v318h-254v88h254v36q0 82 -39.5 131t-105.5 49q-59 0 -102 -44t-43 -136v-442z" />
    <glyph glyph-name="B" unicode="B" horiz-adv-x="579" 
d="M152 0h-94l1 477q0 104 62.5 168.5t158.5 64.5q108 0 167.5 -59.5t59.5 -138.5q0 -96 -71 -137q14 -7 27 -17t32.5 -30.5t31.5 -54.5t12 -75q0 -83 -55 -140.5t-171 -57.5h-125v88h120q16 0 23.5 0.5t27.5 3t32 10t26 19t21 33t7 49.5q0 52 -35.5 83.5t-92.5 31.5h-129
v88h94q55 0 93 27.5t38 76.5q0 45 -33.5 78.5t-91.5 33.5q-56 0 -96.5 -38t-40.5 -109z" />
    <glyph glyph-name="C" unicode="C" horiz-adv-x="502" 
d="M476 700v-88h-66q-89 0 -152 -40.5t-94 -98.5q-30 -55 -30 -123q0 -91 44 -155q72 -107 221 -107h77v-88h-65q-44 0 -80 5t-83 20t-89 50t-74 88q-49 81 -49 187q0 100 47 174t116 116q96 60 223 60h54z" />
    <glyph glyph-name="D" unicode="D" horiz-adv-x="614" 
d="M152 0h-94v700h143q244 0 340 -191q37 -74 37 -159q0 -86 -37 -159q-40 -80 -119.5 -135.5t-181.5 -55.5h-48v88h37q116 0 183.5 78t67.5 184q0 105 -70 183.5t-198 78.5h-60v-612z" />
    <glyph glyph-name="E" unicode="E" horiz-adv-x="508" 
d="M472 406v-88h-338q10 -100 82 -165t181 -65h75v-88h-70q-88 0 -159.5 31t-115.5 82t-67.5 112t-23.5 125t23.5 125t67.5 112t116 82t161 31h68v-88h-59q-109 0 -186 -56.5t-93 -149.5h338z" />
    <glyph glyph-name="F" unicode="F" horiz-adv-x="417" 
d="M152 0h-94v467q0 233 249 233h84v-88h-95q-23 0 -39.5 -2t-38 -10t-34.5 -22.5t-22.5 -42t-9.5 -66.5v-77h239v-88h-239v-304z" />
    <glyph glyph-name="G" unicode="G" horiz-adv-x="793" 
d="M691 584l-63 -68q-67 65 -137 91q-42 15 -89 15q-68 0 -126 -31q-60 -33 -101 -96.5t-41 -144.5q0 -113 77 -192.5t191 -79.5q96 0 171.5 59t85.5 169h-244v88h342v-58q0 -105 -53.5 -186t-133 -120.5t-168.5 -39.5q-148 0 -257 105.5t-109 254.5q0 99 54 186.5
t146 133.5q80 40 176 40q53 0 101 -13q102 -29 178 -113z" />
    <glyph glyph-name="H" unicode="H" horiz-adv-x="608" 
d="M152 0h-94v700h94v-294h304v294h94v-700h-94v318h-304v-318z" />
    <glyph glyph-name="I" unicode="I" horiz-adv-x="210" 
d="M152 0h-94v700h94v-700z" />
    <glyph glyph-name="J" unicode="J" horiz-adv-x="347" 
d="M195 700h94v-474q0 -20 -2 -39.5t-15 -56t-35.5 -63t-70.5 -47t-113 -20.5h-55v88h51q49 0 80.5 14t44.5 39t17 44.5t4 45.5v469z" />
    <glyph glyph-name="K" unicode="K" horiz-adv-x="576" 
d="M152 0h-94v700h94v-294h63q44 0 74.5 19.5t56.5 76.5l89 198h105l-78 -171q-30 -66 -48 -93t-48 -48q140 -29 140 -209v-179h-94v180q0 138 -122 138h-138v-318z" />
    <glyph glyph-name="L" unicode="L" horiz-adv-x="383" 
d="M58 700h94v-454q0 -86 43 -126q34 -32 103 -32h87v-88h-85q-96 0 -149 36q-93 63 -93 210v454z" />
    <glyph glyph-name="M" unicode="M" horiz-adv-x="786" 
d="M102 0h-98l77 611q2 19 6 32.5t12 30.5t24.5 26.5t40.5 9.5q27 0 45.5 -16.5t26 -33.5t16.5 -47l141 -463l141 463q9 30 16.5 47t26 33.5t45.5 16.5q24 0 40.5 -9.5t24.5 -26.5t12 -30.5t6 -32.5l77 -611h-98l-69 568l-150 -496q-7 -21 -11.5 -32.5t-12.5 -24.5t-20 -19
t-28 -6q-30 0 -44.5 20t-27.5 62l-150 496z" />
    <glyph glyph-name="N" unicode="N" horiz-adv-x="626" 
d="M152 0h-94v598q0 23 2 38t9 34.5t25 29.5t46 10q38 0 59 -23t48 -80l225 -469h2v562h94v-608q0 -17 -0.5 -26.5t-4 -26t-10.5 -25.5t-21.5 -16.5t-35.5 -7.5q-27 0 -46.5 12t-28 25t-22.5 42l-245 505h-2v-574z" />
    <glyph glyph-name="O" unicode="O" horiz-adv-x="800" 
d="M36 350q0 149 108 254.5t256 105.5t256 -105.5t108 -254.5t-108 -254.5t-256 -105.5t-256 105.5t-108 254.5zM134 350q0 -112 76.5 -192t189.5 -80t189.5 80t76.5 192t-76.5 192t-189.5 80t-189.5 -80t-76.5 -192z" />
    <glyph glyph-name="P" unicode="P" horiz-adv-x="561" 
d="M152 0h-94v460q0 117 63.5 183.5t168.5 66.5q111 0 173 -68t62 -168q0 -59 -27 -110q-20 -37 -46.5 -60.5t-59.5 -33t-58.5 -12.5t-62.5 -3h-83v88h94q67 0 105.5 36.5t38.5 96.5q0 61 -35.5 103.5t-101.5 42.5q-63 0 -100 -44t-37 -114v-464z" />
    <glyph glyph-name="Q" unicode="Q" horiz-adv-x="804" 
d="M469 -4v-140h-94v372h94v-144q101 26 151 102t50 162q0 113 -77 193.5t-191 80.5q-113 0 -190.5 -80.5t-77.5 -193.5q0 -87 54 -162t151 -100v-90q-98 19 -169 78t-102.5 130t-31.5 144q0 150 109 256t257 106t257 -106t109 -256q0 -121 -80.5 -223.5t-218.5 -128.5z" />
    <glyph glyph-name="R" unicode="R" 
d="M152 0h-94v443q0 35 3 61t12.5 60.5t32.5 64t58 50.5q50 31 126 31q64 0 118 -30q98 -56 98 -169q0 -106 -81 -154q31 -11 50.5 -29.5t28.5 -44t11.5 -46.5t2.5 -52v-185h-94v185q0 121 -120 121h-116v88h79q76 0 110.5 34t34.5 80q0 74 -65 103q-25 11 -57 11
q-35 0 -60 -12q-28 -13 -45 -32.5t-23.5 -46t-8 -44t-1.5 -46.5v-441z" />
    <glyph glyph-name="S" unicode="S" horiz-adv-x="503" 
d="M26 0v88h229q128 0 128 84q0 27 -9.5 47t-36 39t-44 28t-62.5 30q-40 19 -62.5 30.5t-54.5 34t-49 45.5q-34 47 -34 102q0 56 27 96q51 76 178 76h210v-88h-216q-25 0 -37.5 -1t-30 -10t-27.5 -26q-10 -16 -10 -37q0 -31 16 -53q21 -30 126 -80q46 -22 66.5 -32.5
t54.5 -34t52 -47.5q37 -50 37 -110q0 -54 -26 -96q-32 -53 -77.5 -69t-109.5 -16h-238z" />
    <glyph glyph-name="T" unicode="T" horiz-adv-x="444" 
d="M2 612v88h440v-88h-173v-612h-94v612h-173z" />
    <glyph glyph-name="U" unicode="U" horiz-adv-x="579" 
d="M58 700h94v-446q0 -16 1 -31t8.5 -43.5t20.5 -49t41 -36.5t66 -16t66 16t41.5 36.5t21 49t8.5 43.5t1 31v446h94v-440q0 -78 -25 -140.5t-99 -102.5q-49 -27 -108 -27t-108 27q-123 68 -123 243v440z" />
    <glyph glyph-name="V" unicode="V" horiz-adv-x="576" 
d="M-4 700h98l194 -581l194 581h98l-196 -590q-25 -76 -38 -93q-20 -27 -58 -27q-35 0 -53 22t-39 87z" />
    <glyph glyph-name="W" unicode="W" horiz-adv-x="906" 
d="M152 700v-451q0 -42 1 -60t14.5 -47t41.5 -46q29 -18 70 -18q43 0 73 19q25 16 38 41.5t14.5 44.5t1.5 55v11v451h94v-451q0 -73 10 -99q12 -33 44 -53q31 -19 73 -19t70 18q21 13 33.5 29t17 40t5.5 37.5t1 46.5v451h94v-445q0 -32 -1.5 -54t-8 -53t-18.5 -53.5
t-34.5 -45t-54.5 -38.5q-76 -37 -167 -12q-71 20 -111 82q-40 -62 -111 -82q-33 -9 -66 -9q-57 0 -102 21q-39 19 -64.5 47.5t-35.5 65t-13 64t-3 67.5v445h94z" />
    <glyph glyph-name="X" unicode="X" horiz-adv-x="557" 
d="M5 700q92 -2 169.5 -53t104.5 -147q25 96 103 147t170 53v-88q-100 1 -163 -74.5t-63 -187.5q0 -111 64 -187t163 -75v-88q-103 1 -176.5 57.5t-97.5 142.5q-26 -87 -99 -143t-176 -57v88q100 -1 164 75t64 187q0 112 -63 187t-164 75v88z" />
    <glyph glyph-name="Y" unicode="Y" horiz-adv-x="508" 
d="M301 0h-94v274q-86 18 -132.5 79t-46.5 145v202h94v-203q0 -63 33 -99t99 -36t99 36t33 99v203h94v-202q0 -84 -46.5 -145t-132.5 -79v-274z" />
    <glyph glyph-name="Z" unicode="Z" horiz-adv-x="492" 
d="M371 612h-321v88h313q21 0 30 -0.5t27.5 -3.5t27 -10t16.5 -21t8 -35q0 -37 -44 -98l-315 -444h367v-88h-350q-67 0 -91 16q-27 18 -27 58t44 100z" />
    <glyph glyph-name="bracketleft" unicode="[" horiz-adv-x="389" 
d="M286 -176h-174v876h174v-46h-86v-784h86v-46z" />
    <glyph glyph-name="backslash" unicode="\" horiz-adv-x="356" 
d="M-62 712h78l324 -724h-78z" />
    <glyph glyph-name="bracketright" unicode="]" horiz-adv-x="389" 
d="M103 700h174v-876h-174v46h86v784h-86v46z" />
    <glyph glyph-name="asciicircum" unicode="^" horiz-adv-x="602" 
d="M301 614l-160 -328h-84l206 414h76l206 -414h-84z" />
    <glyph glyph-name="underscore" unicode="_" 
d="M527 -125h-500v50h500v-50z" />
    <glyph glyph-name="grave" unicode="`" horiz-adv-x="439" 
d="M60 680h108l90 -142h-68z" />
    <glyph glyph-name="a" unicode="a" horiz-adv-x="572" 
d="M408 128v-92q-58 -46 -139 -46q-104 0 -173.5 67t-69.5 176q0 114 75 185.5t182 71.5q105 0 177 -69t72 -209v-212h-88v215q0 57 -15.5 97t-42 59t-52 27t-54.5 8q-70 0 -117 -45.5t-47 -121.5q0 -83 51.5 -124t114.5 -41q69 0 126 54z" />
    <glyph glyph-name="b" unicode="b" horiz-adv-x="568" 
d="M128 700v-416q0 -22 1 -38t6.5 -43.5t15 -47t30 -39.5t48.5 -31q30 -11 60 -11q71 0 117 47t46 120q0 72 -43.5 118.5t-117.5 46.5q-60 0 -127 -42v92q68 34 128 34q69 0 120 -26q60 -30 95 -89t35 -130q0 -65 -27.5 -121.5t-87 -95t-138.5 -38.5q-97 0 -165 60
q-31 28 -49.5 59.5t-25.5 72t-8 61.5t-1 65v392h88z" />
    <glyph glyph-name="c" unicode="c" horiz-adv-x="371" 
d="M349 480v-84h-63q-88 0 -129 -48t-41 -108q0 -64 45 -110t128 -46h60v-84h-63q-123 0 -191.5 72t-68.5 168q0 127 102 196q66 44 162 44h59z" />
    <glyph glyph-name="d" unicode="d" horiz-adv-x="568" 
d="M454 700h88v-430q0 -125 -68 -202.5t-181 -77.5q-79 0 -138.5 38.5t-87 95t-27.5 121.5q0 72 35 130.5t95 88.5q51 26 121 26q62 0 127 -34v-92q-63 42 -125 42q-51 0 -90 -23q-32 -20 -52.5 -56.5t-20.5 -85.5q0 -73 46.5 -120t118.5 -47q41 0 72 17q87 47 87 179v430z
" />
    <glyph glyph-name="e" unicode="e" horiz-adv-x="551" 
d="M507 338l-324 -180l-36 70l237 132q-42 46 -111 46q-70 0 -113.5 -47t-43.5 -119q0 -98 72 -143q38 -23 85 -23q56 0 91 21q31 19 51 53t21 76l89 -11q-11 -129 -121 -191q-57 -32 -129 -32q-58 0 -112 26q-63 31 -100 89.5t-37 134.5q0 106 71.5 178t177.5 72
q74 0 136 -38.5t96 -113.5z" />
    <glyph glyph-name="f" unicode="f" horiz-adv-x="266" 
d="M128 0h-88v490q0 39 1 58.5t12.5 53t35.5 56.5q20 19 47 29t46.5 11.5t50.5 1.5h51v-84h-49q-37 0 -60 -8t-32.5 -25t-12 -32.5t-2.5 -41.5v-29h144v-84h-144v-396z" />
    <glyph glyph-name="g" unicode="g" horiz-adv-x="572" 
d="M408 128v-92q-60 -46 -131 -46q-44 0 -87 14.5t-80.5 42.5t-60.5 77t-23 112q0 112 75.5 183t181.5 71q27 0 53 -4t64 -22t65 -48t47 -88.5t20 -136.5v-144q0 -67 -14.5 -118t-56.5 -92q-67 -65 -179 -65q-68 0 -159 28l21 80q89 -24 133 -24q167 0 167 170v165
q0 30 -2 49.5t-9.5 52t-28 58t-52.5 40.5t-69 15q-70 0 -118.5 -47.5t-48.5 -122.5q0 -70 41.5 -116t111.5 -46q82 0 139 54z" />
    <glyph glyph-name="h" unicode="h" horiz-adv-x="490" 
d="M128 0h-88v700h88v-263q53 53 127 53q61 0 100 -22q59 -32 77 -84t18 -121v-263h-88v258q0 15 -1 28.5t-7.5 37.5t-17 40t-33.5 29t-54 13q-55 0 -88 -40.5t-33 -120.5v-245z" />
    <glyph glyph-name="i" unicode="i" horiz-adv-x="186" 
d="M137 0h-88v480h88v-480zM40 587q0 20 13 36.5t40 16.5t40 -16.5t13 -36.5t-13 -36.5t-40 -16.5t-40 16.5t-13 36.5z" />
    <glyph glyph-name="j" unicode="j" horiz-adv-x="205" 
d="M68 480h88v-485q0 -23 -0.5 -35.5t-4 -38.5t-10 -41.5t-21 -36t-34.5 -32.5t-52 -20.5t-73 -8.5h-26v84h23q27 0 46.5 3.5t31.5 12.5t19 15.5t10 23t3.5 23t0 27.5t-0.5 26v483zM59 587q0 20 13 36.5t40 16.5t40 -16.5t13 -36.5t-13 -36.5t-40 -16.5t-40 16.5t-13 36.5z
" />
    <glyph glyph-name="k" unicode="k" horiz-adv-x="454" 
d="M128 0h-88v700h88v-398h26q64 0 85 36l83 142h100l-63 -108q-2 -4 -10 -17.5t-10 -17.5t-8.5 -14t-10 -13.5l-10 -10t-12.5 -10.5t-14 -7q27 -4 47.5 -14t32 -28t18.5 -31t9 -38t2.5 -33.5t0.5 -32.5v-105h-88v104q0 41 -7 66t-23.5 34.5t-29 11.5t-39.5 2h-8h-71v-218z
" />
    <glyph glyph-name="l" unicode="l" horiz-adv-x="168" 
d="M128 0h-88v700h88v-700z" />
    <glyph glyph-name="m" unicode="m" horiz-adv-x="704" 
d="M128 0h-88v278q0 68 15 111.5t65 74.5q43 26 92 26q32 0 56 -8q52 -16 84 -60q32 44 84 60q79 25 147 -17q52 -31 66.5 -74t14.5 -112v-279h-88v285q0 39 -8.5 66t-37.5 44q-21 12 -45 11.5t-44 -12.5q-23 -13 -33.5 -38.5t-11 -38.5t-0.5 -51v-266h-88v266q0 66 -10 90
q-11 24 -35 38q-20 12 -44 12q-26 0 -45 -11q-21 -12 -32 -33t-12.5 -36.5t-1.5 -40.5v-285z" />
    <glyph glyph-name="n" unicode="n" horiz-adv-x="490" 
d="M362 0v257q0 101 -64 136q-23 13 -53 13t-53 -13q-64 -35 -64 -136v-257h-88v257q0 145 95 204q48 29 110 29t110 -29q95 -59 95 -204v-257h-88z" />
    <glyph glyph-name="o" unicode="o" horiz-adv-x="552" 
d="M276 406q-71 0 -115.5 -46.5t-44.5 -119.5t44.5 -119.5t115.5 -46.5t115.5 46.5t44.5 119.5t-44.5 119.5t-115.5 46.5zM276 490q104 0 177 -73t73 -177t-73 -177t-177 -73t-177 73t-73 177t73 177t177 73z" />
    <glyph glyph-name="p" unicode="p" horiz-adv-x="572" 
d="M128 -218h-88v426q0 65 16 115.5t40.5 81t58.5 50.5t67 27.5t69 7.5q104 0 179.5 -71.5t75.5 -185.5q0 -111 -74 -177t-174 -66q-81 0 -134 46v92q57 -54 123 -54q76 0 122.5 45t46.5 116q0 76 -47.5 123.5t-116.5 47.5q-30 0 -56 -9t-52 -30t-41 -63.5t-15 -102.5v-419z
" />
    <glyph glyph-name="q" unicode="q" horiz-adv-x="572" 
d="M458 -218v413q0 31 -2.5 54t-11 53t-28.5 53t-51 37q-33 14 -66 14q-72 0 -120.5 -48t-48.5 -123q0 -79 50.5 -120t118.5 -41q66 0 123 54v-92q-52 -46 -131 -46q-102 0 -176.5 66t-74.5 177q0 79 38 139t99 91q54 27 122 27q53 0 100 -19q49 -20 81 -53.5t45 -77t17 -76
t4 -74.5v-408h-88z" />
    <glyph glyph-name="r" unicode="r" horiz-adv-x="274" 
d="M40 0v480h84v-55h2q41 65 135 65h15v-84h-12q-136 0 -136 -178v-228h-88z" />
    <glyph glyph-name="s" unicode="s" horiz-adv-x="445" 
d="M26 0v84h230q55 0 68 20q5 8 5 20q0 23 -13.5 34.5t-40.5 20.5q-21 7 -66 20t-67.5 21t-49.5 24t-42 36q-24 32 -24 70q0 45 21 74q41 56 149 56h201v-84h-226q-22 0 -35.5 -7.5t-16.5 -15t-3 -14.5q0 -35 52 -52q18 -6 63.5 -19t68 -21t51 -24t43.5 -35q25 -33 25 -74
q0 -48 -22 -78q-39 -56 -136 -56h-235z" />
    <glyph glyph-name="t" unicode="t" horiz-adv-x="314" 
d="M300 480v-84h-172v-228q0 -47 6 -59q13 -25 74 -25h92v-84h-108q-18 0 -31.5 1t-38 10t-41 24.5t-29 48t-12.5 77.5v439h88v-120h172z" />
    <glyph glyph-name="u" unicode="u" horiz-adv-x="490" 
d="M362 480h88v-257q0 -145 -95 -204q-48 -29 -110 -29t-110 29q-95 59 -95 204v257h88v-257q0 -101 64 -136q23 -13 53 -13t53 13q64 35 64 136v257z" />
    <glyph glyph-name="v" unicode="v" horiz-adv-x="444" 
d="M362 480h96l-165 -429q-6 -16 -9 -22.5t-11.5 -18t-20.5 -16t-30 -4.5q-8 0 -14.5 1t-11.5 2t-9.5 4.5t-8 5t-7 6.5t-5 7t-4.5 8.5t-4 8.5t-3.5 9.5t-3.5 8.5l-165 429h96l140 -370z" />
    <glyph glyph-name="w" unicode="w" horiz-adv-x="704" 
d="M576 480h88v-283q0 -32 -1.5 -51.5t-8.5 -46t-24 -47t-45 -37.5q-41 -25 -102 -25q-23 0 -47 8q-52 16 -84 60q-32 -44 -84 -60q-80 -24 -148 17q-51 31 -65.5 73.5t-14.5 108.5v283h88v-285q0 -26 1.5 -40.5t10.5 -34.5t27 -32q23 -14 51 -14t48 13q42 27 42 108v285h88
v-285q0 -81 42 -108q20 -13 48 -13q30 0 51 14q18 12 27 32t10.5 34.5t1.5 40.5v285z" />
    <glyph glyph-name="x" unicode="x" horiz-adv-x="388" 
d="M6 396v84h4q59 0 107.5 -30t76.5 -82q28 52 76.5 82t105.5 30h6v-84h-4q-40 0 -74.5 -25t-50.5 -59q-15 -30 -15 -72q0 -41 15 -71q16 -33 50.5 -59t73.5 -26h5v-84h-6q-57 0 -105.5 30t-76.5 82q-28 -52 -76.5 -82t-105.5 -30h-6v84q91 5 129 85q15 30 15 71
q0 42 -15 72q-16 34 -49.5 59t-76.5 25h-3z" />
    <glyph glyph-name="y" unicode="y" horiz-adv-x="480" 
d="M40 480h88v-274q0 -18 2.5 -34t12 -41.5t34.5 -41t63 -15.5t63 15.5t34.5 41t12 41.5t2.5 34v274h88v-277q0 -181 -156 -213v-208h-88v208q-156 32 -156 213v277z" />
    <glyph glyph-name="z" unicode="z" horiz-adv-x="382" 
d="M364 84v-84h-258q-12 0 -19.5 0.5t-22 3.5t-23.5 9t-16 19.5t-7 31.5q0 34 48 92l196 240h-227v84h238q23 0 38.5 -2t32.5 -16.5t17 -42.5q0 -37 -48 -95l-197 -240h248z" />
    <glyph glyph-name="braceleft" unicode="{" horiz-adv-x="389" 
d="M33 232v60q38 4 58.5 36t20.5 77v173q0 57 30.5 89.5t81.5 32.5h67v-46h-43q-14 0 -22.5 -3t-17 -21.5t-8.5 -55.5v-186q0 -91 -79 -126q35 -10 57 -43t22 -84v-185q0 -28 4.5 -45.5t13 -24.5t14 -8.5t13.5 -1.5h46v-46h-79q-43 0 -71.5 36t-28.5 86v174q0 43 -20.5 75.5
t-58.5 36.5z" />
    <glyph glyph-name="bar" unicode="|" horiz-adv-x="222" 
d="M72 0v700h78v-700h-78z" />
    <glyph glyph-name="braceright" unicode="}" horiz-adv-x="389" 
d="M291 292v-60q-38 -4 -58.5 -35.5t-20.5 -73.5v-177q0 -50 -28.5 -86t-71.5 -36h-79v46h46q8 0 13.5 1.5t14 8.5t13 24.5t4.5 45.5v181q0 96 79 131q-79 24 -79 135v177q0 28 -4.5 45.5t-13 24.5t-14 8.5t-13.5 1.5h-46v46h79q43 0 71.5 -36t28.5 -86v-174
q0 -43 20.5 -75.5t58.5 -36.5z" />
    <glyph glyph-name="asciitilde" unicode="~" horiz-adv-x="600" 
d="M495 316l36 -62q-53 -86 -126 -86q-37 0 -99 32q-70 36 -113 36q-59 0 -88 -72l-36 62q42 86 125 86q41 0 126 -39q65 -29 85 -29q29 0 53 23t37 49z" />
    <glyph glyph-name="currency" unicode="&#xa4;" horiz-adv-x="583" 
d="M86 97l-48 48l55 58q-50 62 -50 147t50 147l-55 58l48 48l55 -58q62 53 150 53t150 -53l55 58l48 -48l-55 -58q50 -62 50 -147t-50 -147l55 -58l-48 -48l-55 58q-62 -53 -150 -53t-150 53zM125 350q0 -71 48 -121.5t118 -50.5t118 50.5t48 121.5t-48 121.5t-118 50.5
t-118 -50.5t-48 -121.5z" />
    <glyph glyph-name="brokenbar" unicode="&#xa6;" horiz-adv-x="222" 
d="M72 438v262h78v-262h-78zM72 0v262h78v-262h-78z" />
    <glyph glyph-name="section" unicode="&#xa7;" horiz-adv-x="503" 
d="M426 712v-84h-185q-55 0 -55 -37q0 -13 6 -24t20 -21.5t25 -17t34 -18.5t33 -18q67 -37 103 -80t36 -103q0 -47 -26 -81.5t-72 -41.5q36 -20 56.5 -52t20.5 -67q0 -21 -6.5 -40t-22.5 -38.5t-49.5 -31.5t-79.5 -12h-204v84h199q55 0 68 20q5 8 5 20q0 14 -6 25
t-19.5 21.5t-25 17t-33.5 17.5l-34 17q-141 77 -141 178q0 51 31.5 84t80.5 34q-89 50 -89 129q0 51 38 85.5t119 34.5h173zM256 417q-17 5 -30 5q-32 0 -51 -20t-19 -51q0 -43 47.5 -80.5t84.5 -37.5q27 0 48.5 18t21.5 52q0 38 -32 70t-70 44z" />
    <glyph glyph-name="copyright" unicode="&#xa9;" horiz-adv-x="761" 
d="M32 350q0 155 104 258.5t250 103.5t250 -103.5t104 -258.5t-104 -258.5t-250 -103.5t-250 103.5t-104 258.5zM102 350q0 -124 80 -211t204 -87t204 87t80 211q0 123 -80 210.5t-204 87.5t-204 -87.5t-80 -210.5zM479 547v-74h-44q-73 0 -110 -28q-50 -38 -50 -108
q0 -56 39.5 -96.5t110.5 -40.5h54v-74h-56q-109 0 -169 63t-60 148q0 52 23.5 98t66.5 75q56 37 151 37h44z" />
    <glyph glyph-name="guillemotleft" unicode="&#xab;" horiz-adv-x="495" 
d="M140 240l125 -154h-76l-125 154l125 154h76zM310 240l125 -154h-76l-125 154l125 154h76z" />
    <glyph glyph-name="logicalnot" unicode="&#xac;" horiz-adv-x="600" 
d="M462 102v198h-402v78h480v-276h-78z" />
    <glyph glyph-name="registered" unicode="&#xae;" horiz-adv-x="786" 
d="M32 350q0 155 104 258.5t250 103.5t250 -103.5t104 -258.5t-104 -258.5t-250 -103.5t-250 103.5t-104 258.5zM102 350q0 -124 80 -211t204 -87t204 87t80 211q0 123 -80 210.5t-204 87.5t-204 -87.5t-80 -210.5zM301 147h-56v263q0 30 2.5 50.5t17.5 47t43 42.5
q29 18 71 18q49 0 81 -22q50 -34 50 -101q0 -55 -48 -87q10 -4 18 -8.5t13.5 -11.5t10 -12t7 -14.5t4 -14.5t2 -15.5t0.5 -14v-15v-12.5v-93h-56v107q0 32 -13 49.5t-27 21t-35 3.5h-64v52h47q45 0 65 20t20 49q0 30 -21 48.5t-55 18.5q-77 0 -77 -96v-273z" />
    <glyph glyph-name="degree" unicode="&#xb0;" horiz-adv-x="352" 
d="M176 662q-39 0 -67.5 -25.5t-28.5 -74.5t28.5 -74.5t67.5 -25.5t67.5 25.5t28.5 74.5t-28.5 74.5t-67.5 25.5zM176 712q62 0 106 -44t44 -106t-44 -106t-106 -44t-106 44t-44 106t44 106t106 44z" />
    <glyph glyph-name="plusminus" unicode="&#xb1;" horiz-adv-x="580" 
d="M251 335v145h78v-145h201v-78h-201v-145h-78v145h-201v78h201zM50 0v78h480v-78h-480z" />
    <glyph glyph-name="mu" unicode="&#xb5;" horiz-adv-x="476" 
d="M436 480v-480h-88v62q-20 -36 -53 -54t-68 -18q-66 0 -107 54v-216h-88v652h88v-280q0 -78 56 -111q26 -15 56 -15q32 0 57 15q21 12 34 28t18 37t6 33t1 32v261h88z" />
    <glyph glyph-name="mu" unicode="&#x3bc;" horiz-adv-x="476" 
d="M436 480v-480h-88v62q-20 -36 -53 -54t-68 -18q-66 0 -107 54v-216h-88v652h88v-280q0 -78 56 -111q26 -15 56 -15q32 0 57 15q21 12 34 28t18 37t6 33t1 32v261h88z" />
    <glyph glyph-name="paragraph" unicode="&#xb6;" horiz-adv-x="586" 
d="M544 700v-891h-94v803h-97v-803h-94v537h-15q-58 0 -101.5 14t-66.5 33t-37 45.5t-17.5 45.5t-3.5 38q0 178 239 178h287z" />
    <glyph glyph-name="periodcentered" unicode="&#xb7;" horiz-adv-x="230" 
d="M56 240q0 24 17.5 41.5t41.5 17.5t41.5 -17.5t17.5 -41.5t-17.5 -41.5t-41.5 -17.5t-41.5 17.5t-17.5 41.5z" />
    <glyph glyph-name="periodcentered" unicode="&#x2219;" horiz-adv-x="230" 
d="M56 240q0 24 17.5 41.5t41.5 17.5t41.5 -17.5t17.5 -41.5t-17.5 -41.5t-41.5 -17.5t-41.5 17.5t-17.5 41.5z" />
    <glyph glyph-name="guillemotright" unicode="&#xbb;" horiz-adv-x="495" 
d="M185 240l-125 154h76l125 -154l-125 -154h-76zM355 240l-125 154h76l125 -154l-125 -154h-76z" />
    <glyph glyph-name="afii10023" unicode="&#x401;" horiz-adv-x="493" 
d="M457 700v-88h-166h-13.5h-15.5t-14.5 -0.5t-16 -1.5t-15 -3t-15.5 -5.5t-13 -8t-13 -10.5q-23 -23 -23 -63q0 -24 10 -44q11 -22 26 -35.5t37 -18t33.5 -5.5t36.5 -1h162v-88h-153q-32 0 -47.5 -1t-41.5 -8t-44 -21q-41 -34 -41 -92q0 -30 13 -55q21 -41 56 -52t86 -11
h172v-88h-183q-64 0 -109 13.5t-83 56.5q-46 51 -46 129q0 44 13.5 79t35 54.5t35 28t26.5 13.5q-88 54 -88 159q0 71 47 117q26 24 61 36t57.5 13t73.5 1h160zM155 801q0 24 16 40t40 16t40 -16t16 -40t-16 -40t-40 -16t-40 16t-16 40zM317 801q0 24 16 40t40 16t40 -16
t16 -40t-16 -40t-40 -16t-40 16t-16 40z" />
    <glyph glyph-name="afii10051" unicode="&#x402;" horiz-adv-x="685" 
d="M525 700v-78h-270v-170q52 79 167 79q48 0 85.5 -13.5t58.5 -37.5t34.5 -47.5t18.5 -52.5t6.5 -42t1.5 -27v-86q0 -15 -0.5 -27t-5.5 -36.5t-13.5 -44t-26 -42.5t-41.5 -38.5t-62 -26t-86 -10.5h-41v88h36q8 0 16.5 0.5t27.5 3.5t35 11t32 20.5t25.5 34.5t9.5 51v103
q0 61 -36.5 96t-92.5 35q-68 0 -108.5 -46t-40.5 -118v-279h-94v622h-159v78h523z" />
    <glyph glyph-name="afii10052" unicode="&#x403;" horiz-adv-x="488" 
d="M445 700v-88h-138q-32 0 -46 -0.5t-38 -8t-39 -23.5q-32 -33 -32 -120v-460h-94v462q0 41 2.5 69t16.5 64.5t40 59.5q24 22 62 32.5t60 11.5t67 1h139zM284 759l90 142h108l-130 -142h-68z" />
    <glyph glyph-name="afii10053" unicode="&#x404;" horiz-adv-x="508" 
d="M472 406v-88h-338q10 -100 82 -165t181 -65h75v-88h-70q-88 0 -159.5 31t-115.5 82t-67.5 112t-23.5 125t23.5 125t67.5 112t116 82t161 31h68v-88h-59q-109 0 -186 -56.5t-93 -149.5h338z" />
    <glyph glyph-name="afii10054" unicode="&#x405;" horiz-adv-x="503" 
d="M26 0v88h229q128 0 128 84q0 27 -9.5 47t-36 39t-44 28t-62.5 30q-40 19 -62.5 30.5t-54.5 34t-49 45.5q-34 47 -34 102q0 56 27 96q51 76 178 76h210v-88h-216q-25 0 -37.5 -1t-30 -10t-27.5 -26q-10 -16 -10 -37q0 -31 16 -53q21 -30 126 -80q46 -22 66.5 -32.5
t54.5 -34t52 -47.5q37 -50 37 -110q0 -54 -26 -96q-32 -53 -77.5 -69t-109.5 -16h-238z" />
    <glyph glyph-name="afii10055" unicode="&#x406;" horiz-adv-x="210" 
d="M152 0h-94v700h94v-700z" />
    <glyph glyph-name="afii10056" unicode="&#x407;" horiz-adv-x="217" 
d="M159 0h-94v700h94v-700zM-24 821q0 24 16 40t40 16t40 -16t16 -40t-16 -40t-40 -16t-40 16t-16 40zM136 821q0 24 16 40t40 16t40 -16t16 -40t-16 -40t-40 -16t-40 16t-16 40z" />
    <glyph glyph-name="afii10057" unicode="&#x408;" horiz-adv-x="347" 
d="M195 700h94v-474q0 -20 -2 -39.5t-15 -56t-35.5 -63t-70.5 -47t-113 -20.5h-55v88h51q49 0 80.5 14t44.5 39t17 44.5t4 45.5v469z" />
    <glyph glyph-name="afii10058" unicode="&#x409;" horiz-adv-x="983" 
d="M546 700v-453q0 -25 2 -42t9.5 -43t28 -45t51.5 -30q27 -9 56 -9q44 0 79 17q81 39 81 139q0 70 -42 112.5t-111 42.5q-49 0 -118 -32v96q72 26 121 26q117 0 180.5 -70.5t63.5 -168.5q0 -80 -40.5 -142.5t-111.5 -89.5q-46 -18 -105 -18q-53 0 -91 13q-147 50 -147 242
v367h-46q-27 0 -46.5 -1.5t-49 -8t-56 -23t-46.5 -41.5q-47 -58 -47 -180v-358h-171v88h77v270q0 77 15 135.5t60 108.5q54 60 118.5 79t142.5 19h143z" />
    <glyph glyph-name="afii10059" unicode="&#x40a;" horiz-adv-x="987" 
d="M152 0h-94v700h94v-294h304v294h94v-453q0 -25 2 -42t9.5 -43t28 -45t51.5 -30q27 -9 56 -9q44 0 79 17q81 39 81 139q0 70 -42 112.5t-111 42.5q-49 0 -118 -32v96q72 26 121 26q117 0 180.5 -70.5t63.5 -168.5q0 -80 -40.5 -142.5t-111.5 -89.5q-46 -18 -105 -18
q-53 0 -91 13q-147 50 -147 242v73h-304v-318z" />
    <glyph glyph-name="afii10060" unicode="&#x40b;" horiz-adv-x="667" 
d="M2 622v78h523v-78h-270v-170q50 79 161 79q95 0 153 -59t58 -162v-310h-94v296q0 66 -40.5 106.5t-98.5 40.5t-98.5 -40.5t-40.5 -106.5v-296h-94v622h-159z" />
    <glyph glyph-name="afii10061" unicode="&#x40c;" horiz-adv-x="576" 
d="M152 0h-94v700h94v-294h63q44 0 74.5 19.5t56.5 76.5l89 198h105l-78 -171q-30 -66 -48 -93t-48 -48q140 -29 140 -209v-179h-94v180q0 138 -122 138h-138v-318zM252 759l90 142h108l-130 -142h-68z" />
    <glyph glyph-name="afii10062" unicode="&#x40e;" horiz-adv-x="605" 
d="M58 699h94v-218q0 -76 46 -108q34 -24 118 -24h101v-88h-99q-116 0 -169 32q-91 54 -91 205v201zM100 88h171q96 0 133 24q22 15 33.5 38.5t13.5 40t2 41.5v467h94v-442q0 -51 -2.5 -79t-21.5 -67.5t-57 -66.5q-28 -20 -64 -30.5t-62 -12t-69 -1.5h-171v88zM147 899h50
q1 -12 6 -23t15.5 -24.5t31.5 -21.5t51 -8q55 0 78 24.5t26 52.5h50q1 -56 -38 -95.5t-116 -39.5t-116 39.5t-38 95.5z" />
    <glyph glyph-name="afii10145" unicode="&#x40f;" horiz-adv-x="548" 
d="M58 700h94v-612h274v612h94v-700h-184v-226h-94v226h-184v700z" />
    <glyph glyph-name="afii10017" unicode="&#x410;" horiz-adv-x="594" 
d="M152 0h-94v452q0 105 66 181.5t173 76.5t173 -76.5t66 -181.5v-452h-94v318h-254v88h254v44q0 74 -40 123t-105 49q-59 0 -102 -45t-43 -127v-450z" />
    <glyph glyph-name="afii10018" unicode="&#x411;" horiz-adv-x="578" 
d="M467 700v-88h-315v-372q0 -51 14 -87.5t61 -59.5q29 -15 68 -15q70 0 114 40q43 39 43 104q0 60 -40.5 98t-103.5 38q-61 0 -120 -27v89q67 26 130 26q99 0 163.5 -58.5t64.5 -152.5q0 -109 -71.5 -177t-182.5 -68q-64 0 -116 26q-69 35 -93.5 90.5t-24.5 127.5v466h409z
" />
    <glyph glyph-name="afii10019" unicode="&#x412;" horiz-adv-x="579" 
d="M152 0h-94v477q0 103 63.5 168t158.5 65q108 0 167.5 -59.5t59.5 -138.5q0 -96 -71 -137q14 -7 27 -17t32.5 -30.5t31.5 -54.5t12 -75q0 -83 -55 -140.5t-171 -57.5h-125v88h120q16 0 23.5 0.5t27.5 3t32 10t26 19t21 33t7 49.5q0 52 -35.5 83.5t-92.5 31.5h-129v88h94
q55 0 93 27.5t38 76.5q0 50 -36 81t-89 31q-55 0 -95.5 -38t-40.5 -109v-475z" />
    <glyph glyph-name="afii10020" unicode="&#x413;" horiz-adv-x="451" 
d="M445 700v-88h-138q-32 0 -46 -0.5t-38 -8t-39 -23.5q-32 -33 -32 -120v-460h-94v462q0 41 2.5 69t16.5 64.5t40 59.5q24 22 62 32.5t60 11.5t67 1h139z" />
    <glyph glyph-name="afii10021" unicode="&#x414;" horiz-adv-x="674" 
d="M10 -142v230h472v524h-40q-40 0 -68 -3t-67 -20.5t-66 -49.5q-49 -60 -49 -175v-240h-94v240q0 44 3 75t19 77.5t47 82.5q30 34 65.5 56t77 31t73 11.5t76.5 2.5h117v-612h88v-230h-88v142h-478v-142h-88z" />
    <glyph glyph-name="afii10022" unicode="&#x415;" horiz-adv-x="493" 
d="M457 700v-88h-165h-13.5h-15.5t-14.5 -0.5t-16 -1.5t-15 -3t-15.5 -5.5t-13 -8t-13 -10.5q-23 -23 -23 -63q0 -24 10 -44q11 -22 26 -35.5t37 -18t33.5 -5.5t36.5 -1h161v-88h-153q-32 0 -47.5 -1t-41.5 -8t-44 -21q-41 -32 -41 -92q0 -31 13 -56q33 -62 127 -62h187v-88
h-193q-121 0 -182 70q-46 51 -46 129q0 44 13.5 79t35 54.5t35 28t26.5 13.5q-87 55 -87 159q0 74 47 119q32 30 72 39t98 9h181z" />
    <glyph glyph-name="afii10024" unicode="&#x416;" horiz-adv-x="874" 
d="M836 700l-91 -216q-12 -29 -20 -43.5t-25 -31t-42 -27.5q162 -23 162 -225v-157h-94v168q0 16 -1.5 30.5t-10 38t-23 40t-44 29t-69.5 12.5h-94v-318h-94v318h-97q-39 0 -67.5 -12t-43 -28.5t-23 -39.5t-10 -38t-1.5 -32v-168h-94v157q0 202 162 225q-35 16 -52 38
t-35 64l-91 216h98l65 -161q28 -67 54 -96q34 -37 93 -37h42v294h94v-294h42q59 0 93 37q26 29 54 96l65 161h98z" />
    <glyph glyph-name="afii10025" unicode="&#x417;" horiz-adv-x="493" 
d="M36 700h177h11q36 0 56.5 -1.5t52 -12.5t54.5 -34q47 -45 47 -119q0 -104 -87 -159q65 -25 92 -86q18 -39 18 -89q0 -78 -46 -129q-22 -25 -46.5 -40.5t-54 -21t-48 -7t-50.5 -1.5h-176v88h173q24 0 39.5 1.5t36.5 7t37.5 19t27.5 35.5q13 25 13 55q0 58 -41 92
q-18 14 -44 21t-41.5 8t-47.5 1h-117v88h125q25 0 36.5 1t33.5 5.5t37 18t26 35.5q10 20 10 44q0 40 -23 63q-28 29 -103 29h-178v88z" />
    <glyph glyph-name="afii10026" unicode="&#x418;" horiz-adv-x="624" 
d="M58 700h94l-1 -548q0 -19 8 -19q6 0 30 51l205 433q24 49 46 71t55 22q41 0 56 -29t15 -80v-601h-94v546q0 19 -8 19q-3 0 -7 -4t-7.5 -10.5t-6.5 -13t-6.5 -14t-4.5 -9.5l-205 -431q-23 -47 -43.5 -70t-55.5 -23q-42 0 -56 28.5t-14 80.5v601z" />
    <glyph glyph-name="afii10027" unicode="&#x419;" horiz-adv-x="624" 
d="M58 700h94l-1 -548q0 -19 8 -19q6 0 30 51l205 433q24 49 46 71t55 22q31 0 48 -19.5t20 -39.5t3 -50v-601h-94v546q0 19 -8 19q-3 0 -7 -4t-7.5 -10.5t-6.5 -13t-6.5 -14t-4.5 -9.5l-205 -431q-25 -51 -45.5 -72t-53.5 -21q-36 0 -53 24.5t-17 84.5v601zM151 847h70
q6 -33 31 -52t63 -19t63 19t31 52h70q-7 -60 -52.5 -95.5t-111.5 -35.5t-111.5 35.5t-52.5 95.5z" />
    <glyph glyph-name="afii10028" unicode="&#x41a;" horiz-adv-x="576" 
d="M152 0h-94v700h94v-294h63q44 0 74.5 19.5t56.5 76.5l89 198h105l-78 -171q-30 -66 -48 -93t-48 -48q140 -29 140 -209v-179h-94v180q0 138 -122 138h-138v-318z" />
    <glyph glyph-name="afii10029" unicode="&#x41b;" horiz-adv-x="604" 
d="M546 700v-700h-94v612h-46q-27 0 -46.5 -1.5t-49 -8t-56 -23t-46.5 -41.5q-47 -58 -47 -180v-358h-171v88h77v270q0 78 15.5 135.5t60.5 108.5q54 60 118 79t143 19h142z" />
    <glyph glyph-name="afii10030" unicode="&#x41c;" horiz-adv-x="786" 
d="M102 0h-98l77 611q2 19 6 32.5t12 30.5t24.5 26.5t40.5 9.5q27 0 45.5 -16.5t26 -33.5t16.5 -47l141 -463l141 463q9 30 16.5 47t26 33.5t45.5 16.5q24 0 40.5 -9.5t24.5 -26.5t12 -30.5t6 -32.5l77 -611h-98l-69 568l-150 -496q-7 -21 -11.5 -32.5t-12.5 -24.5t-20 -19
t-28 -6q-30 0 -44.5 20t-27.5 62l-150 496z" />
    <glyph glyph-name="afii10031" unicode="&#x41d;" horiz-adv-x="608" 
d="M152 0h-94v700h94v-294h304v294h94v-700h-94v318h-304v-318z" />
    <glyph glyph-name="afii10032" unicode="&#x41e;" horiz-adv-x="800" 
d="M36 350q0 149 108 254.5t256 105.5t256 -105.5t108 -254.5t-108 -254.5t-256 -105.5t-256 105.5t-108 254.5zM134 350q0 -112 76.5 -192t189.5 -80t189.5 80t76.5 192t-76.5 192t-189.5 80t-189.5 -80t-76.5 -192z" />
    <glyph glyph-name="afii10033" unicode="&#x41f;" horiz-adv-x="608" 
d="M58 700h492v-700h-94v612h-304v-612h-94v700z" />
    <glyph glyph-name="afii10034" unicode="&#x420;" horiz-adv-x="560" 
d="M152 0h-94v460q0 117 63.5 183.5t168.5 66.5q111 0 172.5 -68t61.5 -168q0 -61 -26 -110q-20 -37 -46.5 -60.5t-59.5 -33t-58.5 -12.5t-62.5 -3h-83v88h94q67 0 105.5 36.5t38.5 96.5q0 61 -35.5 103.5t-101.5 42.5q-63 0 -100 -44t-37 -114v-464z" />
    <glyph glyph-name="afii10035" unicode="&#x421;" horiz-adv-x="502" 
d="M476 700v-88h-66q-89 0 -152 -40.5t-94 -98.5q-30 -55 -30 -123q0 -91 44 -155q72 -107 221 -107h77v-88h-65q-44 0 -80 5t-83 20t-89 50t-74 88q-49 81 -49 187q0 100 47 174t116 116q96 60 223 60h54z" />
    <glyph glyph-name="afii10036" unicode="&#x422;" horiz-adv-x="436" 
d="M-3 612v88h442v-88h-174v-612h-94v612h-174z" />
    <glyph glyph-name="afii10037" unicode="&#x423;" horiz-adv-x="605" 
d="M58 699h94v-218q0 -76 46 -108q34 -24 118 -24h101v-88h-99q-116 0 -169 32q-91 54 -91 205v201zM100 88h171q96 0 133 24q22 15 33.5 38.5t13.5 40t2 41.5v467h94v-442q0 -51 -2.5 -79t-21.5 -67.5t-57 -66.5q-28 -20 -64 -30.5t-62 -12t-69 -1.5h-171v88z" />
    <glyph glyph-name="afii10038" unicode="&#x424;" horiz-adv-x="860" 
d="M383 781h94v-84h10q149 0 243 -92t94 -227q0 -77 -34 -146t-107 -118.5t-171 -53.5v94q96 4 155 70.5t59 153.5q0 94 -67 161t-177 67h-5v-633h-94v87h-12q-145 0 -240 92.5t-95 226.5q0 77 34.5 146.5t107 118.5t169.5 53v-94q-96 -5 -154.5 -71.5t-58.5 -152.5
q0 -94 66 -161t177 -67h6v630z" />
    <glyph glyph-name="afii10039" unicode="&#x425;" 
d="M4 88q145 3 204 144q22 52 22 118t-22 118q-59 141 -204 144v88q59 -2 112 -22.5t97.5 -66.5t63.5 -111q19 65 63.5 111t97.5 66.5t112 22.5v-88q-145 -3 -204 -144q-22 -52 -22 -118t22 -118q59 -141 204 -144v-88q-59 2 -112 22.5t-97.5 66.5t-63.5 111
q-19 -65 -63.5 -111t-97.5 -66.5t-112 -22.5v88z" />
    <glyph glyph-name="afii10040" unicode="&#x426;" horiz-adv-x="648" 
d="M58 700h94v-446q0 -91 33 -127q16 -18 40 -27t42 -10.5t50 -1.5h321v-230h-88v142h-242q-41 0 -65 2t-58.5 14.5t-61.5 37.5q-65 60 -65 186v460zM550 124h-94v576h94v-576z" />
    <glyph glyph-name="afii10041" unicode="&#x427;" horiz-adv-x="581" 
d="M429 700h94v-700h-94v260h-122q-115 0 -165 24q-106 51 -106 205v211h94v-212q0 -85 47 -118q33 -22 125 -22h127v352z" />
    <glyph glyph-name="afii10042" unicode="&#x428;" horiz-adv-x="906" 
d="M58 700h94v-454q0 -28 0.5 -41.5t9 -39.5t24.5 -42q35 -35 124 -35h444v612h94v-700h-544q-38 0 -64 2.5t-60 15t-59 35.5q-39 36 -51 84.5t-12 112.5v450zM406 700h94v-576h-94v576z" />
    <glyph glyph-name="afii10043" unicode="&#x429;" horiz-adv-x="946" 
d="M58 700h94v-453q0 -28 0.5 -41.5t9 -40.5t24.5 -43q35 -34 133 -34h617v-230h-88v142h-528q-47 0 -73.5 2t-63 14.5t-62.5 36.5q-63 58 -63 182v465zM406 700h94v-576h-94v576zM848 700v-576h-94v576h94z" />
    <glyph glyph-name="afii10044" unicode="&#x42a;" horiz-adv-x="668" 
d="M-10 700h242v-450q0 -28 1.5 -45.5t12 -44t30.5 -45.5q40 -37 105 -37q70 0 113.5 40.5t43.5 117.5q0 71 -39.5 113t-107.5 42t-123 -34v96q3 1 14 5t13.5 5t11.5 4t12.5 3.5t11.5 2.5t13 2.5t13 1.5t15 1.5t16 0.5q118 0 181 -70.5t63 -168.5q0 -102 -66 -176t-191 -74
q-101 0 -161 56q-76 70 -76 203v363h-148v88z" />
    <glyph glyph-name="afii10045" unicode="&#x42b;" horiz-adv-x="765" 
d="M152 700v-453q0 -30 1 -44.5t11.5 -42t31.5 -46.5q39 -36 97 -36q51 0 85 17q81 40 81 141q0 68 -42 111.5t-111 43.5q-53 0 -118 -34v96q3 1 14 5t13.5 5t11.5 4t12.5 3.5t11.5 2.5t13 2.5t13 1.5t15 1.5t16 0.5q118 0 181.5 -70.5t63.5 -168.5q0 -80 -40.5 -142.5
t-111.5 -89.5q-48 -18 -109 -18q-99 0 -160 56q-74 68 -74 200v454h94zM707 0h-94v700h94v-700z" />
    <glyph glyph-name="afii10046" unicode="&#x42c;" horiz-adv-x="589" 
d="M152 700v-453q0 -25 2 -42t9.5 -43t28 -45t51.5 -30q27 -9 56 -9q44 0 79 17q81 39 81 139q0 70 -42 113.5t-111 43.5q-53 0 -118 -34v96q72 26 121 26q117 0 180.5 -70.5t63.5 -168.5q0 -80 -40.5 -142.5t-111.5 -89.5q-46 -18 -105 -18q-53 0 -91 13q-147 50 -147 242
v455h94z" />
    <glyph glyph-name="afii10047" unicode="&#x42d;" horiz-adv-x="508" 
d="M36 406h338q-11 82 -87 144t-172 62h-79v88h64q90 0 163 -31t117.5 -82t68 -112t23.5 -125t-23.5 -125t-68 -112t-117.5 -82t-163 -31h-64v88h79q106 0 177.5 64.5t81.5 165.5h-338v88z" />
    <glyph glyph-name="afii10048" unicode="&#x42e;" horiz-adv-x="1007" 
d="M152 406h194q-5 -28 -5 -50q0 -105 71 -191.5t187 -86.5q118 0 196 78.5t78 188.5q0 117 -79 197t-190 80q-79 0 -150.5 -48t-100.5 -132h-94q33 117 130 192.5t219 75.5q148 0 255.5 -105.5t107.5 -254.5q0 -152 -107 -256t-255 -104q-140 0 -243.5 89.5t-122.5 238.5
h-91v-318h-94v700h94v-294z" />
    <glyph glyph-name="afii10049" unicode="&#x42f;" horiz-adv-x="553" 
d="M42 0v122q0 29 0.5 44.5t6.5 43.5t17.5 45.5t35 36t57.5 29.5q-60 21 -91.5 71t-31.5 106q0 67 36 116.5t92 74.5q48 21 109 21q72 0 122 -32q100 -62 100 -223v-455h-94v455q0 121 -75 155q-25 12 -63 12q-35 0 -66 -15q-67 -32 -67 -104q0 -54 37 -93t133 -39h65v-88
h-62q-87 0 -131 -44q-36 -36 -36 -117v-122h-94z" />
    <glyph glyph-name="afii10065" unicode="&#x430;" horiz-adv-x="572" 
d="M408 128v-92q-58 -46 -139 -46q-104 0 -173.5 67t-69.5 176q0 114 75 185.5t182 71.5q105 0 177 -69t72 -209v-212h-88v215q0 57 -15.5 97t-42 59t-52 27t-54.5 8q-70 0 -117 -45.5t-47 -121.5q0 -83 51.5 -124t114.5 -41q69 0 126 54z" />
    <glyph glyph-name="afii10066" unicode="&#x431;" horiz-adv-x="580" 
d="M164 353v93q59 44 133 44q66 0 115 -25q60 -30 95 -89t35 -131q0 -68 -31 -125.5t-80 -89.5q-61 -40 -142 -40q-97 0 -165 60q-39 35 -59 86t-22.5 82.5t-2.5 84.5v67q0 68 14 122t33.5 88t52.5 58.5t58.5 36t63.5 18t57 7t49 0.5h5h124v-84h-118q-30 0 -49 -0.5
t-48.5 -5t-48 -12.5t-40.5 -23.5t-35 -38t-21.5 -56.5t-8.5 -78v-94q0 -39 2.5 -65t11.5 -60.5t31 -59.5t56 -38q28 -11 58 -11q49 0 90 24q75 46 75 143q0 105 -81 147q-35 18 -82 18q-69 0 -125 -53z" />
    <glyph glyph-name="afii10067" unicode="&#x432;" horiz-adv-x="489" 
d="M40 0v304q0 87 60 136.5t146 49.5t136 -41t50 -100q0 -33 -18.5 -58.5t-47.5 -39.5q44 -10 70.5 -42.5t26.5 -77.5q0 -33 -16 -61q-26 -44 -66 -57t-103 -13h-114v84h111q20 0 33.5 1.5t30.5 6.5t25.5 17.5t8.5 31.5q0 22 -9.5 36t-30 19.5t-36 7t-42.5 1.5h-91v80h75
h25.5t25.5 3t27 8t17 16.5t8 27.5q0 24 -20 45t-71 21q-12 0 -23 -1t-31 -8t-34 -18.5t-24.5 -36t-10.5 -57.5v-285h-88z" />
    <glyph glyph-name="afii10068" unicode="&#x433;" horiz-adv-x="331" 
d="M40 0v273q0 33 1 52t11.5 52t30.5 55q21 23 52 34t51 12.5t62 1.5h101v-84h-119q-61 0 -83 -27q-19 -24 -19 -96v-273h-88z" />
    <glyph glyph-name="afii10069" unicode="&#x434;" horiz-adv-x="572" 
d="M408 128v-92q-60 -46 -131 -46q-44 0 -87 14.5t-80.5 42.5t-60.5 77t-23 112q0 112 75.5 183t181.5 71q27 0 53 -4t64 -22t65 -48t47 -88.5t20 -136.5v-144q0 -67 -14.5 -118t-56.5 -92q-67 -65 -179 -65q-68 0 -159 28l21 80q89 -24 133 -24q167 0 167 170v165
q0 30 -2 49.5t-9.5 52t-28 58t-52.5 40.5t-69 15q-70 0 -118.5 -47.5t-48.5 -122.5q0 -70 41.5 -116t111.5 -46q82 0 139 54z" />
    <glyph glyph-name="afii10070" unicode="&#x435;" horiz-adv-x="551" 
d="M507 338l-324 -180l-36 70l237 132q-42 46 -111 46q-70 0 -113.5 -47t-43.5 -119q0 -98 72 -143q38 -23 85 -23q56 0 91 21q31 19 51 53t21 76l89 -11q-11 -129 -121 -191q-57 -32 -129 -32q-58 0 -112 26q-63 31 -100 89.5t-37 134.5q0 106 71.5 178t177.5 72
q74 0 136 -38.5t96 -113.5z" />
    <glyph glyph-name="afii10072" unicode="&#x436;" horiz-adv-x="676" 
d="M552 480h94l-60 -112q-3 -5 -13.5 -27t-16 -30t-19 -23.5t-31.5 -27.5q63 -6 99 -53q7 -9 12 -18t8 -21t4.5 -19t2.5 -22t1 -19.5v-22.5v-19v-66h-88v73v28.5t-2 25.5t-6 25.5t-12 20.5t-20 18t-30.5 9.5t-42.5 4.5h-50v-205h-88v205h-50q-24 0 -42.5 -4.5t-30.5 -9.5
t-20 -18t-12 -20.5t-6 -25.5t-2 -25.5v-28.5v-73h-88v66v19v22.5t1 19.5t2.5 22t4.5 19t8 21t12 18q36 47 99 53q-18 12 -31.5 27.5t-19 23.5t-16 30t-13.5 27l-60 112h94l48 -93q51 -98 102 -98h20v191h88v-191h20q51 0 102 98z" />
    <glyph glyph-name="afii10073" unicode="&#x437;" horiz-adv-x="407" 
d="M30 480h141h18h19t18 -0.5t19 -1.5t17 -3t18.5 -5t15.5 -7t16 -9.5t13.5 -13t13.5 -16.5q19 -29 19 -62q0 -25 -11 -50q-18 -38 -54 -58q48 -13 70 -59q14 -30 14 -60q0 -42 -22 -74q-15 -21 -34 -34.5t-44 -18.5t-43.5 -6.5t-50.5 -1.5h-153v84h156q40 0 60.5 5t32.5 25
q8 14 8 30q0 18 -6 29q-8 16 -28.5 23.5t-35 8.5t-45.5 1h-106v84h106h11h12t11 0.5t12 1t10 2t10.5 3.5t8.5 5t8.5 7t6.5 9q6 10 6 28q0 11 -4 19q-6 15 -21.5 22t-28.5 8t-39 1h-145v84z" />
    <glyph glyph-name="afii10074" unicode="&#x438;" horiz-adv-x="496" 
d="M128 480v-339v-16q0 -2 1 -2t1 1l1 2q10 17 17 28l173 260q2 3 12.5 20t15 22.5t14 16t19.5 14t22 3.5q52 0 52 -60v-430h-88v336v16q0 2 -1 2l-1 -1l-1 -2q-2 -3 -9 -14.5t-8 -13.5l-174 -257q-4 -6 -13 -20.5t-14.5 -22t-14 -16.5t-18.5 -13t-22 -4q-52 0 -52 66v424
h88z" />
    <glyph glyph-name="afii10075" unicode="&#x439;" horiz-adv-x="496" 
d="M128 480v-339v-16q0 -2 1 -2t1 1l1 2q10 17 17 28l173 260q4 6 13.5 21t14.5 21.5t14 16t19 13.5t22 4q19 0 31 -7.5t16 -23t4.5 -22t0.5 -21.5v-416h-88v336v16q0 2 -1 2l-1 -1l-1 -2q-2 -3 -9 -14.5t-8 -13.5l-174 -257q-4 -6 -13 -20.5t-14.5 -22t-14 -16.5t-18.5 -13
t-22 -4q-19 0 -31 7.5t-16 23t-4.5 22t-0.5 21.5v416h88zM335 681h71q-12 -58 -54 -90.5t-105 -32.5t-105 32.5t-54 90.5h71q7 -32 32 -49t56 -17t56 17t32 49z" />
    <glyph glyph-name="afii10076" unicode="&#x43a;" horiz-adv-x="458" 
d="M40 480h88v-191h56q33 0 53 21.5t49 76.5l48 93h94l-52 -99l-12.5 -25t-14.5 -27.5t-14 -22.5t-20 -25t-24 -21q62 -9 95 -54q29 -39 29 -134v-72h-88v73q0 25 -2.5 43.5t-12 41t-32.5 35t-58 12.5h-94v-205h-88v480z" />
    <glyph glyph-name="afii10077" unicode="&#x43b;" horiz-adv-x="467" 
d="M427 0h-88v396h-14q-87 0 -131 -36q-26 -22 -40 -54t-16 -54t-2 -57v-195h-146v84h62v111q0 34 2.5 57.5t11 58.5t30 65t55.5 54q73 50 220 50h56v-480z" />
    <glyph glyph-name="afii10078" unicode="&#x43c;" horiz-adv-x="642" 
d="M4 0l80 417q13 73 66 73q22 0 36.5 -10.5t20 -22t12.5 -31.5l73 -236q3 -9 7.5 -26t5.5 -22q2 -8 11 -38q4 -11 5 -11q2 0 4 10q21 82 22 85l76 238q5 15 8.5 23.5t11.5 19.5t20 16t29 5q53 0 66 -73l80 -417h-94l-59 369l-2 8q-1 -1 -1 -3q-3 -6 -5.5 -16.5t-4.5 -17.5
l-86 -267q-16 -49 -28.5 -66t-36.5 -17q-25 0 -38.5 18t-28.5 65l-84 266q-1 2 -3 10.5t-4 15t-3 9.5l-1 3l-2 -8l-59 -369h-94z" />
    <glyph glyph-name="afii10079" unicode="&#x43d;" horiz-adv-x="484" 
d="M40 0v480h88v-177h228v177h88v-480h-88v219h-228v-219h-88z" />
    <glyph glyph-name="afii10080" unicode="&#x43e;" horiz-adv-x="552" 
d="M276 490q104 0 177 -73t73 -177t-73 -177t-177 -73t-177 73t-73 177t73 177t177 73zM276 406q-71 0 -115.5 -46.5t-44.5 -119.5t44.5 -119.5t115.5 -46.5t115.5 46.5t44.5 119.5t-44.5 119.5t-115.5 46.5z" />
    <glyph glyph-name="afii10081" unicode="&#x43f;" horiz-adv-x="476" 
d="M40 0v480h173q111 0 159 -33q43 -29 54.5 -69.5t11.5 -106.5v-271h-88v270q0 77 -32 104q-26 22 -98 22h-92v-396h-88z" />
    <glyph glyph-name="afii10082" unicode="&#x440;" horiz-adv-x="572" 
d="M128 -218h-88v426q0 65 16 115.5t40.5 81t58.5 50.5t67 27.5t69 7.5q104 0 179.5 -71.5t75.5 -185.5q0 -111 -74 -177t-174 -66q-81 0 -134 46v92q57 -54 123 -54q76 0 122.5 45t46.5 116q0 76 -47.5 123.5t-116.5 47.5q-30 0 -56 -9t-52 -30t-41 -63.5t-15 -102.5v-419z
" />
    <glyph glyph-name="afii10083" unicode="&#x441;" horiz-adv-x="371" 
d="M349 480v-84h-61q-71 0 -114 -33q-58 -46 -58 -123q0 -50 27 -89q47 -67 150 -67h56v-84h-63q-123 0 -191.5 71.5t-68.5 165.5q0 130 102 199q66 44 162 44h59z" />
    <glyph glyph-name="afii10084" unicode="&#x442;" horiz-adv-x="386" 
d="M-2 480h390v-84h-151v-396h-88v396h-151v84z" />
    <glyph glyph-name="afii10085" unicode="&#x443;" horiz-adv-x="491" 
d="M38 480h88v-240q0 -77 13 -106q12 -28 38 -45q23 -15 62 -15q40 0 71 23q53 40 53 143v240h88v-475q0 -63 -13.5 -106.5t-55.5 -78.5q-63 -51 -163 -51q-80 0 -175 35l9 87q79 -38 153 -38q88 0 125 36q5 5 9.5 10.5t7.5 10t5.5 11.5t4 11t2.5 11.5t1.5 11t1 12t0.5 11
v12v10.5v55q-28 -46 -88 -60q-24 -5 -57 -5q-39 0 -69 11q-37 13 -61 37.5t-34 58.5t-13 61t-3 66v256z" />
    <glyph glyph-name="afii10086" unicode="&#x444;" horiz-adv-x="700" 
d="M270 480v-84q-67 -5 -107.5 -50.5t-40.5 -105.5q0 -56 30.5 -93.5t70 -50.5t83.5 -12v616h88v-220h14q115 0 187.5 -68t72.5 -171q0 -92 -64 -165t-174 -76v84q67 4 107.5 50.5t40.5 105.5q0 60 -42.5 108.5t-141.5 47.5v-616h-88v220h-17q-109 0 -183 68.5t-74 170.5
q0 92 64 165t174 76z" />
    <glyph glyph-name="afii10087" unicode="&#x445;" horiz-adv-x="390" 
d="M7 396v84q61 0 110.5 -30.5t77.5 -81.5q28 51 77.5 81.5t110.5 30.5v-84q-58 1 -101 -39t-43 -117t43 -117t101 -39v-84q-61 0 -110.5 30.5t-77.5 81.5q-28 -51 -77.5 -81.5t-110.5 -30.5v84q58 -1 101 39t43 117t-43 117t-101 39z" />
    <glyph glyph-name="afii10088" unicode="&#x446;" horiz-adv-x="533" 
d="M38 480h88v-282q0 -27 1 -40t10.5 -31.5t29.5 -29.5q23 -13 82 -13h274v-209h-76v125h-204q-89 0 -135 27q-31 19 -47.5 51t-19.5 56t-3 60v286zM439 120h-88v360h88v-360z" />
    <glyph glyph-name="afii10089" unicode="&#x447;" horiz-adv-x="458" 
d="M38 480h88v-147q0 -23 2.5 -34.5t13 -26.5t38 -21.5t72.5 -6.5h78v236h88v-480h-88v160h-94q-54 0 -92.5 12.5t-58.5 29t-31 43t-13.5 46t-2.5 45.5v144z" />
    <glyph glyph-name="afii10090" unicode="&#x448;" horiz-adv-x="704" 
d="M40 480h88v-284q0 -22 1.5 -35.5t9.5 -31.5t24 -29q22 -16 74 -16h339v396h88v-480h-414q-32 0 -49.5 1t-43.5 7t-46 19q-44 28 -57.5 66.5t-13.5 94.5v292zM396 120h-88v360h88v-360z" />
    <glyph glyph-name="afii10091" unicode="&#x449;" horiz-adv-x="759" 
d="M40 480h88v-280q0 -78 47 -103q24 -13 97 -13h477v-209h-77v125h-415h-14h-16t-15.5 0.5t-17.5 1t-16.5 2t-18 3.5t-16.5 4.5t-17.5 6.5t-15.5 9q-43 28 -56.5 70t-13.5 103v280zM664 121h-88v359h88v-359zM396 121h-88v359h88v-359z" />
    <glyph glyph-name="afii10092" unicode="&#x44a;" horiz-adv-x="536" 
d="M-10 480h204v-281q0 -25 2 -40.5t14 -36.5t36 -34q27 -14 68 -14q29 0 50 8q58 24 58 85q0 45 -31.5 73.5t-77.5 28.5q-53 0 -83 -34v92q44 26 93 26q78 0 132.5 -50t54.5 -122q0 -49 -26 -96.5t-72 -71.5q-43 -23 -106 -23q-43 0 -81 13q-119 44 -119 211v182h-116v84z
" />
    <glyph glyph-name="afii10093" unicode="&#x44b;" horiz-adv-x="620" 
d="M128 480v-280q0 -18 1.5 -31.5t8.5 -32.5t18.5 -31.5t34.5 -21.5t55 -9q56 0 83 28.5t27 64.5q0 43 -28.5 72.5t-74.5 29.5q-58 0 -89 -34v92q44 26 94 26q79 0 132.5 -50t53.5 -122q0 -49 -26 -96.5t-72 -71.5q-43 -23 -106 -23q-47 0 -81 13q-119 45 -119 215v262h88z
M492 480h88v-480h-88v480z" />
    <glyph glyph-name="afii10094" unicode="&#x44c;" horiz-adv-x="484" 
d="M128 480v-282q0 -39 9.5 -65t41.5 -44q27 -15 66 -15q31 0 53 9q23 9 40.5 30t17.5 54q0 30 -13 53q-30 49 -92 49q-57 0 -87 -34v92q43 26 96 26q81 0 132 -49q52 -50 52 -123q0 -49 -26 -96.5t-72 -71.5q-43 -23 -107 -23q-44 0 -80 13q-41 15 -67.5 42t-36.5 62.5
t-12.5 57t-2.5 52.5v263h88z" />
    <glyph glyph-name="afii10095" unicode="&#x44d;" horiz-adv-x="385" 
d="M22 480h55q103 0 164 -34q114 -65 114 -204q0 -103 -67 -170q-72 -72 -204 -72h-62v84h53q86 0 125 22q55 32 65 95h-243v84h243q-14 61 -64 89q-38 22 -125 22h-54v84z" />
    <glyph glyph-name="afii10096" unicode="&#x44e;" horiz-adv-x="699" 
d="M128 480v-195h144q-5 -23 -5 -43q0 -73 45 -120.5t114 -47.5q65 0 111 46.5t46 119.5q0 66 -42 116t-120 50q-95 0 -137 -85h-94q24 75 88.5 122t145.5 47q104 0 176.5 -73t72.5 -177t-72.5 -177t-176.5 -73q-88 0 -158.5 57.5t-86.5 153.5h-51v-201h-88v480h88z" />
    <glyph glyph-name="afii10097" unicode="&#x44f;" horiz-adv-x="466" 
d="M45 0v59q0 80 20 109q18 27 57 41q-44 9 -68 43t-24 76q0 43 24 83.5t77 62.5q39 16 85 16q96 0 148 -47q39 -35 50.5 -78.5t11.5 -104.5v-260h-88v237q0 78 -11 106q-15 39 -54 54q-23 9 -57 9q-35 0 -60 -14q-38 -21 -38 -63q0 -76 113 -76h71v-80h-61q-55 0 -76 -15
q-32 -21 -32 -81v-77h-88z" />
    <glyph glyph-name="afii10071" unicode="&#x451;" horiz-adv-x="551" 
d="M507 338l-324 -180l-36 70l237 132q-42 46 -111 46q-70 0 -113.5 -47t-43.5 -119q0 -98 72 -143q38 -23 85 -23q56 0 91 21q31 19 51 53t21 76l89 -11q-11 -129 -121 -191q-57 -32 -129 -32q-58 0 -112 26q-63 31 -100 89.5t-37 134.5q0 106 71.5 178t177.5 72
q74 0 136 -38.5t96 -113.5zM124 611q0 23 15 38t38 15t38 -15t15 -38t-15 -38t-38 -15t-38 15t-15 38zM429 611q0 -23 -15.5 -38t-37.5 -15t-37.5 15t-15.5 38t15.5 38t37.5 15t37.5 -15t15.5 -38z" />
    <glyph glyph-name="afii10099" unicode="&#x452;" horiz-adv-x="582" 
d="M220 0h-88v578h-100v64h100v58h88v-58h250v-64h-250v-141q53 53 127 53q61 0 100 -22q59 -32 77 -84t18 -121v-268q0 -23 -0.5 -35.5t-4 -38.5t-10 -41.5t-21 -36t-34.5 -32.5t-52 -20.5t-73 -8.5h-26v84h30q47 0 70.5 14t30.5 50q2 11 2 67v261q0 15 -1 28.5t-7.5 37.5
t-17 40t-33.5 29t-54 13q-55 0 -88 -40.5t-33 -120.5v-245z" />
    <glyph glyph-name="afii10100" unicode="&#x453;" horiz-adv-x="418" 
d="M36 0v273q0 33 1 52t11.5 52t30.5 55q21 23 52 34t51 12.5t62 1.5h101v-84h-119q-61 0 -83 -27q-19 -24 -19 -96v-273h-88zM206 538l90 142h108l-130 -142h-68z" />
    <glyph glyph-name="afii10101" unicode="&#x454;" horiz-adv-x="384" 
d="M354 480v-84h-54q-87 0 -125 -22q-50 -28 -64 -89h243v-84h-243q10 -63 65 -95q39 -22 125 -22h53v-84h-62q-133 0 -204 72q-66 68 -66 170q0 45 13 83.5t33.5 62.5t36 37t30.5 21q60 34 164 34h55z" />
    <glyph glyph-name="afii10102" unicode="&#x455;" horiz-adv-x="444" 
d="M28 0v84h230h19t18.5 2.5t18.5 6.5t11.5 13t5.5 22q0 8 -2.5 14.5t-5.5 11.5t-10 9.5t-12.5 7.5t-17 7t-19 6t-23.5 6.5t-25 7.5q-31 9 -40 11.5t-36 12t-37 15.5t-28.5 18.5t-26 25t-14 30.5t-6.5 39q0 23 6.5 43t23.5 41t53.5 33.5t88.5 12.5h199v-84h-209h-7.5h-9.5
t-9.5 -0.5t-10.5 -1.5t-10 -3t-9.5 -5t-7 -7.5t-5 -10.5t-1.5 -14q0 -12 5.5 -21.5t19 -16t23.5 -10t32 -9t31 -8.5q95 -28 125 -44q67 -38 67 -111q0 -24 -7 -45.5t-23 -42.5t-49 -33.5t-79 -12.5h-237z" />
    <glyph glyph-name="afii10103" unicode="&#x456;" horiz-adv-x="213" 
d="M118 0h-88v480h88v-480zM21 587q0 20 13 36.5t40 16.5t40 -16.5t13 -36.5t-13 -36.5t-40 -16.5t-40 16.5t-13 36.5z" />
    <glyph glyph-name="afii10104" unicode="&#x457;" horiz-adv-x="250" 
d="M153 0h-88v480h88v-480zM-24 600q0 24 16 40t40 16t40 -16t16 -40t-16 -40t-40 -16t-40 16t-16 40zM136 600q0 24 16 40t40 16t40 -16t16 -40t-16 -40t-40 -16t-40 16t-16 40z" />
    <glyph glyph-name="afii10105" unicode="&#x458;" horiz-adv-x="222" 
d="M68 480h88v-483q0 -23 -0.5 -35.5t-4 -38.5t-10 -41.5t-21 -36t-34.5 -32.5t-52 -20.5t-73 -8.5h-26v84h23q27 0 46.5 3.5t31.5 12.5t19 15.5t10 23t3.5 23t0 27.5t-0.5 26v481zM59 587q0 20 13 36.5t40 16.5t40 -16.5t13 -36.5t-13 -36.5t-40 -16.5t-40 16.5t-13 36.5z
" />
    <glyph glyph-name="afii10106" unicode="&#x459;" horiz-adv-x="783" 
d="M-10 84h62v111q0 34 2.5 58t11 59t30 65t55.5 53q71 50 199 50h77v-282q0 -39 9.5 -65t41.5 -44q27 -15 66 -15q31 0 53 9q23 9 40.5 30t17.5 54q0 30 -13 53q-30 49 -92 49q-57 0 -87 -34v92q43 26 96 26q81 0 132 -49q52 -50 52 -123q0 -49 -26 -96.5t-72 -71.5
q-43 -23 -107 -23q-44 0 -80 13q-41 15 -67.5 42t-36.5 62.5t-12.5 57t-2.5 52.5v179h-14q-87 0 -131 -36q-26 -22 -40 -54t-16 -54t-2 -57v-195h-146v84z" />
    <glyph glyph-name="afii10107" unicode="&#x45a;" horiz-adv-x="797" 
d="M353 303v177h88v-282q0 -39 9.5 -65t41.5 -44q27 -15 66 -15q31 0 53 9q23 9 40.5 30t17.5 54q0 30 -13 53q-30 49 -92 49q-57 0 -87 -34v92q43 26 96 26q81 0 132 -49q52 -50 52 -123q0 -49 -26 -96.5t-72 -71.5q-43 -23 -107 -23q-44 0 -80 13q-119 44 -119 204v12
h-228v-219h-88v480h88v-177h228z" />
    <glyph glyph-name="afii10108" unicode="&#x45b;" horiz-adv-x="582" 
d="M220 0h-88v578h-100v64h100v58h88v-58h250v-64h-250v-141q53 53 127 53q61 0 100 -22q59 -32 77 -84t18 -121v-263h-88v258q0 15 -1 28.5t-7.5 37.5t-17 40t-33.5 29t-54 13q-55 0 -88 -40.5t-33 -120.5v-245z" />
    <glyph glyph-name="afii10109" unicode="&#x45c;" horiz-adv-x="460" 
d="M36 480h88v-191h56q33 0 53 21.5t49 76.5l48 93h94l-52 -99l-12.5 -25t-14.5 -27.5t-14 -22.5t-20 -25t-24 -21q62 -9 95 -54q29 -39 29 -134v-72h-88v73q0 25 -2.5 43.5t-12 41t-32.5 35t-58 12.5h-94v-205h-88v480zM181 538l90 142h108l-130 -142h-68z" />
    <glyph glyph-name="afii10110" unicode="&#x45e;" horiz-adv-x="491" 
d="M38 480h88v-240q0 -77 13 -106q12 -28 38 -45q23 -15 62 -15q40 0 71 23q53 40 53 143v240h88v-475q0 -63 -13.5 -106.5t-55.5 -78.5q-63 -51 -163 -51q-80 0 -175 35l9 87q79 -38 153 -38q88 0 125 36q5 5 9.5 10.5t7.5 10t5.5 11.5t4 11t2.5 11.5t1.5 11t1 12t0.5 11
v12v10.5v55q-28 -46 -88 -60q-24 -5 -57 -5q-39 0 -69 11q-37 13 -61 37.5t-34 58.5t-13 61t-3 66v256zM90 678h50q1 -12 6 -23t15.5 -24.5t31.5 -21.5t51 -8q55 0 78 24.5t26 52.5h50q1 -56 -38 -95.5t-116 -39.5t-116 39.5t-38 95.5z" />
    <glyph glyph-name="afii10193" unicode="&#x45f;" horiz-adv-x="476" 
d="M40 480h88v-396h222v396h88v-480h-155v-208h-88v208h-155v480z" />
    <glyph glyph-name="afii10050" unicode="&#x490;" horiz-adv-x="451" 
d="M152 0h-94v462q0 41 2.5 69t16.5 64.5t40 59.5q24 22 62 32.5t60 11.5t67 1h61v71h78v-159h-138q-32 0 -46 -0.5t-38 -8t-39 -23.5q-32 -33 -32 -120v-460z" />
    <glyph glyph-name="afii10098" unicode="&#x491;" horiz-adv-x="327" 
d="M36 0v273q0 59 13 99.5t30.5 61t49.5 31.5t54.5 13t60.5 2h13v116h88v-200h-101q-43 0 -69 -7.5t-36.5 -26.5t-12.5 -34t-2 -47v-8v-273h-88z" />
    <glyph glyph-name="endash" unicode="&#x2013;" 
d="M527 208h-500v64h500v-64z" />
    <glyph glyph-name="emdash" unicode="&#x2014;" horiz-adv-x="1054" 
d="M1027 208h-1000v64h1000v-64z" />
    <glyph glyph-name="quoteleft" unicode="&#x2018;" horiz-adv-x="222" 
d="M130 700l36 -202h-74l-46 202h84z" />
    <glyph glyph-name="quoteright" unicode="&#x2019;" horiz-adv-x="222" 
d="M130 498h-74l36 202h84z" />
    <glyph glyph-name="quotesinglbase" unicode="&#x201a;" horiz-adv-x="222" 
d="M110 -102h-74l36 202h84z" />
    <glyph glyph-name="quotedblleft" unicode="&#x201c;" horiz-adv-x="389" 
d="M126 700l36 -202h-74l-46 202h84zM311 700l36 -202h-74l-46 202h84z" />
    <glyph glyph-name="quotedblright" unicode="&#x201d;" horiz-adv-x="389" 
d="M116 498h-74l36 202h84zM301 498h-74l36 202h84z" />
    <glyph glyph-name="quotedblbase" unicode="&#x201e;" horiz-adv-x="389" 
d="M116 -102h-74l36 202h84zM301 -102h-74l36 202h84z" />
    <glyph glyph-name="dagger" unicode="&#x2020;" horiz-adv-x="500" 
d="M65 524l164 -30l-28 206h98l-28 -206l164 30v-96l-164 30l28 -168q-12 -66 -21 -171.5t-9 -176.5v-76h-38v76q0 71 -9 176.5t-21 171.5l28 168l-164 -30v96z" />
    <glyph glyph-name="daggerdbl" unicode="&#x2021;" horiz-adv-x="500" 
d="M201 700h98l-28 -206l164 30v-96l-164 30l28 -175l-28 -175l164 31v-96l-164 29l28 -206h-98l28 206l-164 -29v96l164 -31l-28 175l28 175l-164 -30v96l164 -30z" />
    <glyph glyph-name="bullet" unicode="&#x2022;" horiz-adv-x="500" 
d="M250 525q74 0 124.5 -50.5t50.5 -124.5t-50.5 -124.5t-124.5 -50.5t-124.5 50.5t-50.5 124.5t50.5 124.5t124.5 50.5z" />
    <glyph glyph-name="ellipsis" unicode="&#x2026;" horiz-adv-x="1000" 
d="M108 53q0 24 17.5 41.5t41.5 17.5t41.5 -17.5t17.5 -41.5t-17.5 -41.5t-41.5 -17.5t-41.5 17.5t-17.5 41.5zM441 53q0 24 17.5 41.5t41.5 17.5t41.5 -17.5t17.5 -41.5t-17.5 -41.5t-41.5 -17.5t-41.5 17.5t-17.5 41.5zM774 53q0 24 17.5 41.5t41.5 17.5t41.5 -17.5
t17.5 -41.5t-17.5 -41.5t-41.5 -17.5t-41.5 17.5t-17.5 41.5z" />
    <glyph glyph-name="perthousand" unicode="&#x2030;" horiz-adv-x="1072" 
d="M723 152q0 69 48.5 116.5t115.5 47.5t115.5 -47.5t48.5 -116.5t-48.5 -116.5t-115.5 -47.5t-115.5 47.5t-48.5 116.5zM801 152q0 -37 25.5 -61.5t60.5 -24.5t60.5 24.5t25.5 61.5t-25.5 61.5t-60.5 24.5t-60.5 -24.5t-25.5 -61.5zM445 152q0 -37 25.5 -61.5t60.5 -24.5
t60.5 24.5t25.5 61.5t-25.5 61.5t-60.5 24.5t-60.5 -24.5t-25.5 -61.5zM21 548q0 69 48.5 116.5t115.5 47.5t115.5 -47.5t48.5 -116.5t-48.5 -116.5t-115.5 -47.5t-115.5 47.5t-48.5 116.5zM99 548q0 -37 25.5 -61.5t60.5 -24.5t60.5 24.5t25.5 61.5t-25.5 61.5t-60.5 24.5
t-60.5 -24.5t-25.5 -61.5zM626 712l-465 -724h-62l465 724h62zM367 152q0 69 48.5 116.5t115.5 47.5t115.5 -47.5t48.5 -116.5t-48.5 -116.5t-115.5 -47.5t-115.5 47.5t-48.5 116.5z" />
    <glyph glyph-name="Euro" unicode="&#x20ac;" horiz-adv-x="540" 
d="M497 570h-20q-7 50 -41 75t-87 25q-83 0 -122 -63t-49 -187h267l-14 -37h-255v-32v-33h228l-15 -37h-211q8 -122 51.5 -186.5t120.5 -64.5q49 0 84.5 24.5t42.5 76.5h20l-5 -80q-47 -60 -161 -60q-221 0 -244 290h-67l14 37h49q-1 9 -1 35q0 21 1 30h-63l14 37h51
q15 145 71.5 217.5t174.5 72.5q115 0 161 -57z" />
    <glyph glyph-name="trademark" unicode="&#x2122;" horiz-adv-x="1059" 
d="M54 700h390v-84h-151v-396h-88v396h-151v84zM421 220l80 417q13 73 66 73q22 0 36.5 -10.5t20 -22t12.5 -31.5l73 -236q3 -9 7.5 -26t5.5 -22q2 -8 11 -38q4 -11 5 -11q2 0 4 10q21 82 22 85l76 238q5 15 8.5 23.5t11.5 19.5t20 16t29 5q53 0 66 -73l80 -417h-94l-59 369
l-2 8q-1 -1 -1 -3q-1 -1 -1 -2t-0.5 -1.5t-0.5 -1.5q-2 -5 -4.5 -14.5t-4.5 -14.5l-85 -268q-15 -48 -27.5 -65.5t-37.5 -17.5q-24 0 -38 17.5t-29 65.5l-83 267q-9 29 -11 35l-1 3l-2 -8l-59 -369h-94z" />
    <glyph glyph-name="hyphenminus" horiz-adv-x="278" 
d="M251 200h-224v80h224v-80z" />
    <glyph glyph-name="quilsinglleft" horiz-adv-x="328" 
d="M145 240l125 -154h-76l-125 154l125 154h76z" />
    <glyph glyph-name="quilsinglright" horiz-adv-x="328" 
d="M183 240l-125 154h76l125 -154l-125 -154h-76z" />
    <glyph glyph-name="numero" horiz-adv-x="945" 
d="M148 0h-94v594q0 19 1.5 31t8 34.5t25 34.5t47.5 12q38 0 59 -23t48 -80l225 -465h2v562h94v-604q0 -17 -0.5 -26.5t-4 -26t-10.5 -25.5t-21.5 -16.5t-35.5 -7.5q-27 0 -46.5 12t-28 25t-22.5 42l-245 501h-2v-574zM625 557q0 59 42 101t101 42t101 -42t42 -101t-42 -101
t-101 -42t-101 42t-42 101zM911 286h-286v64h286v-64zM693 557q0 -36 20 -57.5t55 -21.5t55 21.5t20 57.5t-20 57.5t-55 21.5t-55 -21.5t-20 -57.5z" />
    </font>
</defs>
</svg>
